<svg xmlns="http://www.w3.org/2000/svg" xmlns:xlink="http://www.w3.org/1999/xlink" width="500" zoomAndPan="magnify" viewBox="0 0 375 374.999991" height="500" preserveAspectRatio="xMidYMid meet" version="1.0"><defs><g/><clipPath id="6ff6d4dbb9"><path d="M 144.175781 84.527344 L 231 84.527344 L 231 229 L 144.175781 229 Z M 144.175781 84.527344 " clip-rule="nonzero"/></clipPath><clipPath id="b090ae7a57"><rect x="0" width="197" y="0" height="45"/></clipPath></defs><rect x="-37.5" width="450" fill="#ffffff" y="-37.499999" height="449.999989" fill-opacity="1"/><rect x="-37.5" width="450" fill="#000000" y="-37.499999" height="449.999989" fill-opacity="1"/><g clip-path="url(#6ff6d4dbb9)"><path fill="#ffffff" d="M 150.695312 169.078125 L 151.207031 199 L 151.722656 228.921875 L 149.660156 228.921875 L 150.171875 199 Z M 156.144531 165.597656 L 156.65625 197.261719 L 157.171875 228.921875 L 155.109375 228.921875 L 155.628906 197.261719 Z M 166.527344 102.089844 L 167.042969 165.507812 L 167.558594 228.921875 L 165.496094 228.921875 L 166.011719 165.507812 Z M 171.664062 99.808594 L 172.175781 164.363281 L 172.691406 228.921875 L 170.628906 228.921875 L 171.144531 164.363281 Z M 176.800781 96.609375 L 177.3125 162.765625 L 177.828125 228.921875 L 175.765625 228.921875 L 176.277344 162.765625 Z M 181.9375 94.554688 L 182.449219 161.738281 L 182.964844 228.921875 L 180.902344 228.921875 L 181.414062 161.738281 Z M 187.070312 91.816406 L 187.582031 160.371094 L 188.097656 228.921875 L 186.035156 228.921875 L 186.546875 160.371094 Z M 208.75 139.40625 L 209.261719 184.164062 L 209.777344 228.921875 L 207.714844 228.921875 L 208.226562 184.164062 Z M 213.996094 142.605469 L 214.511719 185.761719 L 215.023438 228.921875 L 212.960938 228.921875 L 213.476562 185.761719 Z M 219.246094 145.457031 L 219.761719 187.191406 L 220.273438 228.925781 L 218.210938 228.925781 L 218.726562 187.191406 Z M 224.496094 147.738281 L 225.007812 188.328125 L 225.523438 228.921875 L 223.460938 228.921875 L 223.972656 188.328125 Z M 229.746094 149.566406 L 230.261719 189.246094 L 230.773438 228.925781 L 228.714844 228.925781 L 229.226562 189.246094 Z M 193.03125 89.433594 L 194.0625 146.902344 L 191.996094 146.902344 L 192.511719 118.167969 Z M 198.253906 86.640625 L 199.285156 144.25 L 197.222656 144.25 L 197.734375 115.445312 Z M 203.476562 84.527344 L 203.988281 112.933594 L 204.503906 141.335938 L 202.445312 141.335938 L 202.957031 112.933594 Z M 145.246094 171.390625 L 145.757812 200.15625 L 146.273438 228.921875 L 144.214844 228.921875 L 144.726562 200.15625 Z M 145.246094 171.390625 " fill-opacity="1" fill-rule="evenodd"/></g><g transform="matrix(1, 0, 0, 1, 89, 232)"><g clip-path="url(#b090ae7a57)"><g fill="#ffffff" fill-opacity="1"><g transform="translate(1.022244, 34.937617)"><g><path d="M 4.375 0 L 13.546875 0 C 15.171875 0 16.539062 -0.210938 17.65625 -0.640625 C 18.78125 -1.066406 19.679688 -1.617188 20.359375 -2.296875 C 21.046875 -2.984375 21.539062 -3.753906 21.84375 -4.609375 C 22.144531 -5.472656 22.296875 -6.347656 22.296875 -7.234375 C 22.296875 -8.617188 22 -9.722656 21.40625 -10.546875 C 20.8125 -11.378906 20.097656 -12.015625 19.265625 -12.453125 C 18.441406 -12.890625 17.59375 -13.179688 16.71875 -13.328125 C 15.84375 -13.472656 15.132812 -13.554688 14.59375 -13.578125 L 14.59375 -13.71875 C 15.445312 -13.71875 16.25 -13.878906 17 -14.203125 C 17.757812 -14.535156 18.425781 -14.960938 19 -15.484375 C 19.570312 -16.015625 20.023438 -16.625 20.359375 -17.3125 C 20.703125 -18.007812 20.875 -18.75 20.875 -19.53125 C 20.875 -20.207031 20.726562 -20.898438 20.4375 -21.609375 C 20.144531 -22.316406 19.703125 -22.960938 19.109375 -23.546875 C 18.515625 -24.128906 17.75 -24.609375 16.8125 -24.984375 C 15.875 -25.359375 14.769531 -25.546875 13.5 -25.546875 L 4.375 -25.546875 Z M 7.703125 -1.609375 L 7.703125 -12.78125 L 11.71875 -12.78125 C 12.90625 -12.78125 13.9375 -12.617188 14.8125 -12.296875 C 15.695312 -11.984375 16.421875 -11.554688 16.984375 -11.015625 C 17.554688 -10.484375 17.984375 -9.863281 18.265625 -9.15625 C 18.546875 -8.457031 18.6875 -7.71875 18.6875 -6.9375 C 18.6875 -6.082031 18.535156 -5.328125 18.234375 -4.671875 C 17.929688 -4.015625 17.523438 -3.453125 17.015625 -2.984375 C 16.503906 -2.523438 15.898438 -2.179688 15.203125 -1.953125 C 14.503906 -1.722656 13.769531 -1.609375 13 -1.609375 Z M 7.703125 -14.375 L 7.703125 -23.9375 L 12.15625 -23.9375 C 13.101562 -23.9375 13.910156 -23.800781 14.578125 -23.53125 C 15.242188 -23.269531 15.789062 -22.921875 16.21875 -22.484375 C 16.644531 -22.046875 16.957031 -21.546875 17.15625 -20.984375 C 17.351562 -20.421875 17.453125 -19.863281 17.453125 -19.3125 C 17.453125 -18.601562 17.3125 -17.941406 17.03125 -17.328125 C 16.75 -16.722656 16.359375 -16.203125 15.859375 -15.765625 C 15.359375 -15.328125 14.785156 -14.984375 14.140625 -14.734375 C 13.492188 -14.492188 12.804688 -14.375 12.078125 -14.375 Z M 7.703125 -14.375 "/></g></g></g><g fill="#ffffff" fill-opacity="1"><g transform="translate(25.146233, 34.937617)"><g><path d="M 2.921875 -25.546875 L 2.921875 -9.859375 C 2.921875 -8.859375 3.015625 -7.753906 3.203125 -6.546875 C 3.398438 -5.347656 3.863281 -4.226562 4.59375 -3.1875 C 5.320312 -2.15625 6.40625 -1.289062 7.84375 -0.59375 C 9.28125 0.09375 11.238281 0.4375 13.71875 0.4375 C 15.28125 0.4375 16.660156 0.195312 17.859375 -0.28125 C 19.066406 -0.769531 20.078125 -1.441406 20.890625 -2.296875 C 21.710938 -3.148438 22.328125 -4.140625 22.734375 -5.265625 C 23.148438 -6.398438 23.359375 -7.613281 23.359375 -8.90625 L 23.359375 -25.546875 L 21.75 -25.546875 L 21.75 -10.109375 C 21.75 -9.578125 21.738281 -9.035156 21.71875 -8.484375 C 21.695312 -7.941406 21.625 -7.394531 21.5 -6.84375 C 21.375 -6.289062 21.179688 -5.75 20.921875 -5.21875 C 20.671875 -4.6875 20.300781 -4.148438 19.8125 -3.609375 C 18.9375 -2.660156 17.953125 -2.015625 16.859375 -1.671875 C 15.765625 -1.335938 14.625 -1.171875 13.4375 -1.171875 C 12.414062 -1.171875 11.507812 -1.328125 10.71875 -1.640625 C 9.925781 -1.953125 9.175781 -2.425781 8.46875 -3.0625 C 7.90625 -3.550781 7.476562 -4.035156 7.1875 -4.515625 C 6.894531 -5.003906 6.675781 -5.484375 6.53125 -5.953125 C 6.382812 -6.429688 6.296875 -6.914062 6.265625 -7.40625 C 6.242188 -7.894531 6.234375 -8.382812 6.234375 -8.875 L 6.234375 -25.546875 Z M 2.921875 -25.546875 "/></g></g></g><g fill="#ffffff" fill-opacity="1"><g transform="translate(51.423493, 34.937617)"><g><path d="M 5.84375 -25.546875 L 5.84375 0 L 9.15625 0 L 9.15625 -25.546875 Z M 5.84375 -25.546875 "/></g></g></g><g fill="#ffffff" fill-opacity="1"><g transform="translate(66.423432, 34.937617)"><g><path d="M 4.375 0 L 4.375 -25.546875 L 7.703125 -25.546875 L 7.703125 -2 L 20.875 -2 L 20.875 0 Z M 4.375 0 "/></g></g></g><g fill="#ffffff" fill-opacity="1"><g transform="translate(88.394138, 34.937617)"><g><path d="M 4.75 0 L 4.75 -25.546875 L 13.140625 -25.546875 C 15.160156 -25.546875 17.007812 -25.222656 18.6875 -24.578125 C 20.363281 -23.929688 21.800781 -23.039062 23 -21.90625 C 24.207031 -20.78125 25.144531 -19.4375 25.8125 -17.875 C 26.488281 -16.320312 26.828125 -14.644531 26.828125 -12.84375 C 26.828125 -10.96875 26.476562 -9.242188 25.78125 -7.671875 C 25.09375 -6.109375 24.144531 -4.753906 22.9375 -3.609375 C 21.738281 -2.460938 20.332031 -1.570312 18.71875 -0.9375 C 17.113281 -0.3125 15.398438 0 13.578125 0 Z M 8.0625 -1.609375 L 12.078125 -1.609375 C 14.078125 -1.609375 15.773438 -1.941406 17.171875 -2.609375 C 18.566406 -3.273438 19.710938 -4.144531 20.609375 -5.21875 C 21.515625 -6.289062 22.175781 -7.488281 22.59375 -8.8125 C 23.007812 -10.132812 23.21875 -11.457031 23.21875 -12.78125 C 23.21875 -14.238281 22.972656 -15.640625 22.484375 -16.984375 C 21.992188 -18.335938 21.28125 -19.53125 20.34375 -20.5625 C 19.40625 -21.601562 18.242188 -22.425781 16.859375 -23.03125 C 15.472656 -23.632812 13.878906 -23.9375 12.078125 -23.9375 L 8.0625 -23.9375 Z M 8.0625 -1.609375 "/></g></g></g><g fill="#ffffff" fill-opacity="1"><g transform="translate(116.313724, 34.937617)"><g><path d="M 18.578125 -7.515625 L 22.078125 0 L 25.625 0 L 13.71875 -25.546875 L 11.90625 -25.546875 L 1.09375 0 L 2.78125 0 L 5.984375 -7.515625 Z M 17.8125 -9.15625 L 6.671875 -9.15625 L 11.9375 -21.46875 L 12.078125 -21.46875 Z M 17.8125 -9.15625 "/></g></g></g><g fill="#ffffff" fill-opacity="1"><g transform="translate(143.028935, 34.937617)"><g><path d="M 4.375 -25.546875 L 4.375 0 L 7.703125 0 L 7.703125 -11.28125 L 9.3125 -11.28125 C 9.988281 -11.28125 10.550781 -11.21875 11 -11.09375 C 11.457031 -10.96875 11.867188 -10.757812 12.234375 -10.46875 C 12.597656 -10.175781 12.9375 -9.800781 13.25 -9.34375 C 13.5625 -8.882812 13.9375 -8.3125 14.375 -7.625 L 17.265625 -3.359375 C 17.628906 -2.796875 17.988281 -2.28125 18.34375 -1.8125 C 18.695312 -1.351562 19.078125 -0.957031 19.484375 -0.625 C 19.898438 -0.300781 20.367188 -0.046875 20.890625 0.140625 C 21.421875 0.335938 22.050781 0.4375 22.78125 0.4375 C 23.3125 0.4375 23.742188 0.410156 24.078125 0.359375 C 24.421875 0.316406 24.765625 0.195312 25.109375 0 L 25.109375 -1.34375 C 24.984375 -1.320312 24.859375 -1.304688 24.734375 -1.296875 C 24.617188 -1.285156 24.5 -1.28125 24.375 -1.28125 C 23.863281 -1.28125 23.414062 -1.351562 23.03125 -1.5 C 22.644531 -1.644531 22.28125 -1.859375 21.9375 -2.140625 C 21.59375 -2.421875 21.257812 -2.757812 20.9375 -3.15625 C 20.625 -3.5625 20.300781 -4.019531 19.96875 -4.53125 C 18.945312 -6.007812 18.15625 -7.191406 17.59375 -8.078125 C 17.03125 -8.972656 16.582031 -9.660156 16.25 -10.140625 C 15.925781 -10.628906 15.660156 -10.984375 15.453125 -11.203125 C 15.242188 -11.421875 14.992188 -11.601562 14.703125 -11.75 L 14.34375 -11.9375 L 14.34375 -12.078125 C 15.507812 -12.148438 16.507812 -12.40625 17.34375 -12.84375 C 18.1875 -13.28125 18.875 -13.828125 19.40625 -14.484375 C 19.945312 -15.140625 20.335938 -15.851562 20.578125 -16.625 C 20.828125 -17.394531 20.953125 -18.144531 20.953125 -18.875 C 20.953125 -19.53125 20.820312 -20.242188 20.5625 -21.015625 C 20.3125 -21.796875 19.875 -22.519531 19.25 -23.1875 C 18.632812 -23.863281 17.789062 -24.425781 16.71875 -24.875 C 15.644531 -25.320312 14.296875 -25.546875 12.671875 -25.546875 Z M 7.703125 -23.9375 L 11.390625 -23.9375 C 12.316406 -23.9375 13.148438 -23.800781 13.890625 -23.53125 C 14.628906 -23.269531 15.265625 -22.898438 15.796875 -22.421875 C 16.335938 -21.953125 16.75 -21.390625 17.03125 -20.734375 C 17.3125 -20.078125 17.453125 -19.359375 17.453125 -18.578125 C 17.453125 -17.921875 17.320312 -17.253906 17.0625 -16.578125 C 16.8125 -15.910156 16.425781 -15.300781 15.90625 -14.75 C 15.394531 -14.207031 14.769531 -13.765625 14.03125 -13.421875 C 13.289062 -13.085938 12.4375 -12.921875 11.46875 -12.921875 L 7.703125 -12.921875 Z M 7.703125 -23.9375 "/></g></g></g><g fill="#ffffff" fill-opacity="1"><g transform="translate(169.233203, 34.937617)"><g><path d="M 18.578125 -7.515625 L 22.078125 0 L 25.625 0 L 13.71875 -25.546875 L 11.90625 -25.546875 L 1.09375 0 L 2.78125 0 L 5.984375 -7.515625 Z M 17.8125 -9.15625 L 6.671875 -9.15625 L 11.9375 -21.46875 L 12.078125 -21.46875 Z M 17.8125 -9.15625 "/></g></g></g></g></g><g fill="#ffffff" fill-opacity="1"><g transform="translate(160.15309, 286.94796)"><g><path d="M 0.609375 -3.984375 C 0.609375 -1.507812 2.441406 0.15625 4.714844 0.15625 C 6.015625 0.15625 7.105469 -0.394531 7.847656 -1.21875 L 7.847656 -4.101562 L 4.113281 -4.101562 L 4.113281 -3.21875 L 6.855469 -3.21875 L 6.855469 -1.589844 C 6.460938 -1.195312 5.671875 -0.730469 4.714844 -0.730469 C 2.964844 -0.730469 1.640625 -2.09375 1.640625 -3.984375 C 1.640625 -5.886719 2.964844 -7.226562 4.714844 -7.226562 C 5.671875 -7.226562 6.519531 -6.769531 7.023438 -6.125 L 7.8125 -6.617188 C 7.105469 -7.488281 6.125 -8.109375 4.714844 -8.109375 C 2.441406 -8.109375 0.609375 -6.460938 0.609375 -3.984375 Z M 0.609375 -3.984375 "/></g></g></g><g fill="#ffffff" fill-opacity="1"><g transform="translate(172.26444, 286.94796)"><g><path d="M 6.722656 0 L 4.570312 -3.253906 C 5.660156 -3.347656 6.640625 -4.140625 6.640625 -5.574219 C 6.640625 -7.046875 5.597656 -7.980469 4.140625 -7.980469 L 0.933594 -7.980469 L 0.933594 0 L 1.925781 0 L 1.925781 -3.171875 L 3.515625 -3.171875 L 5.550781 0 Z M 5.609375 -5.574219 C 5.609375 -4.675781 4.964844 -4.042969 4.019531 -4.042969 L 1.925781 -4.042969 L 1.925781 -7.09375 L 4.019531 -7.09375 C 4.964844 -7.09375 5.609375 -6.472656 5.609375 -5.574219 Z M 5.609375 -5.574219 "/></g></g></g><g fill="#ffffff" fill-opacity="1"><g transform="translate(183.120717, 286.94796)"><g><path d="M 0.609375 -3.984375 C 0.609375 -1.625 2.199219 0.144531 4.570312 0.144531 C 6.925781 0.144531 8.527344 -1.625 8.527344 -3.984375 C 8.527344 -6.339844 6.925781 -8.109375 4.570312 -8.109375 C 2.199219 -8.109375 0.609375 -6.339844 0.609375 -3.984375 Z M 7.5 -3.984375 C 7.5 -2.128906 6.351562 -0.742188 4.570312 -0.742188 C 2.773438 -0.742188 1.640625 -2.128906 1.640625 -3.984375 C 1.640625 -5.851562 2.773438 -7.226562 4.570312 -7.226562 C 6.351562 -7.226562 7.5 -5.851562 7.5 -3.984375 Z M 7.5 -3.984375 "/></g></g></g><g fill="#ffffff" fill-opacity="1"><g transform="translate(195.853641, 286.94796)"><g><path d="M 0.933594 -3.097656 C 0.933594 -1.136719 2.023438 0.144531 4.1875 0.144531 C 6.351562 0.144531 7.441406 -1.125 7.441406 -3.109375 L 7.441406 -7.980469 L 6.449219 -7.980469 L 6.449219 -3.121094 C 6.449219 -1.664062 5.660156 -0.742188 4.1875 -0.742188 C 2.714844 -0.742188 1.925781 -1.664062 1.925781 -3.121094 L 1.925781 -7.980469 L 0.933594 -7.980469 Z M 0.933594 -3.097656 "/></g></g></g><g fill="#ffffff" fill-opacity="1"><g transform="translate(207.809604, 286.94796)"><g><path d="M 1.925781 0 L 1.925781 -3.171875 L 4.140625 -3.171875 C 5.71875 -3.171875 6.640625 -4.269531 6.640625 -5.574219 C 6.640625 -6.878906 5.742188 -7.980469 4.140625 -7.980469 L 0.933594 -7.980469 L 0.933594 0 Z M 5.609375 -5.574219 C 5.609375 -4.675781 4.964844 -4.054688 4.019531 -4.054688 L 1.925781 -4.054688 L 1.925781 -7.09375 L 4.019531 -7.09375 C 4.964844 -7.09375 5.609375 -6.472656 5.609375 -5.574219 Z M 5.609375 -5.574219 "/></g></g></g><path stroke-linecap="butt" transform="matrix(0.75, 0, 0, 0.75, 78.594491, 227.624985)" fill="none" stroke-linejoin="miter" d="M -0.000988452 1.00002 L 89.842767 1.00002 " stroke="#cecabf" stroke-width="2" stroke-opacity="1" stroke-miterlimit="4"/><path stroke-linecap="butt" transform="matrix(0.75, 0, 0, 0.75, 78.594491, 282.558145)" fill="none" stroke-linejoin="miter" d="M -0.000988452 1.000599 L 43.915681 1.000599 " stroke="#cecabf" stroke-width="2" stroke-opacity="1" stroke-miterlimit="4"/><path stroke-linecap="butt" transform="matrix(0.75, 0, 0, 0.75, 260.979422, 282.558145)" fill="none" stroke-linejoin="miter" d="M 0.00139598 1.000599 L 43.918066 1.000599 " stroke="#cecabf" stroke-width="2" stroke-opacity="1" stroke-miterlimit="4"/><path stroke-linecap="butt" transform="matrix(0.749997, -0.00227383, 0.00227383, 0.749997, 230.816401, 227.624985)" fill="none" stroke-linejoin="miter" d="M 0.00218302 1.000031 L 84.132782 0.999888 " stroke="#cecabf" stroke-width="2" stroke-opacity="1" stroke-miterlimit="4"/></svg>